<?xml version="1.0" encoding="UTF-8"?>
<svg id="Layer_2" data-name="Layer 2" xmlns="http://www.w3.org/2000/svg" viewBox="0 0 190.277 190">
  <defs>
    <style>
      .cls-1 {
        fill: #c5237d;
      }

      .cls-1, .cls-2, .cls-3 {
        stroke-width: 0px;
      }

      .cls-2, .cls-4 {
        fill: #231f20;
      }

      .cls-5 {
        fill: none;
        stroke: #c5237d;
        stroke-miterlimit: 10;
        stroke-width: 4.059px;
      }

      .cls-4 {
        font-family: Helvetica-Bold, Helvetica;
        font-size: 14px;
        font-weight: 700;
      }

      .cls-3 {
        fill: #fff;
      }
    </style>
  </defs>
  <g id="Layer_1-2" data-name="Layer 1">
    <rect class="cls-3" x=".277" width="190" height="190"/>
    <text class="cls-4" transform="translate(39.907 158.919)"><tspan x="0" y="0">Broadway Bomb</tspan></text>
    <g>
      <path class="cls-5" d="M91.762,123.725c-10.201-.001-18.865-4.126-25.053-11.929-4.791-6.04-7.906-14.175-8.773-22.907-.748-7.538-.3-13.71,1.523-18.964-8.119-1.022-14.284-7.066-16.741-16.603l-1.738-6.747,16.683-4.229c1.251-9.661,8.078-15.719,19.56-17.205,2.216-.287,4.019-.42,5.676-.42,5.011,0,9.045,1.307,12.333,3.997,2.34,1.913,4.194,4.365,5.547,7.326l6.859-1.557,2.406,10.598c13.178,2.453,24.585,15.485,27.486,32.22,2.918,16.831-2.178,30.544-13.633,36.68-8.807,4.718-15.708,7.72-24.862,9.085-2.486.435-4.932.656-7.269.656h-.004Z"/>
      <path class="cls-2" d="M130.692,78.489c-2.556-14.746-13.608-27.667-26.275-26.844l-2.01-8.854-6.358,1.443c-.724-4.14-2.248-7.724-5.211-10.145-3.264-2.67-7.43-2.75-12.724-2.065-12.015,1.555-13.771,8.158-13.718,13.883-.113,2.478.631,5.381.106,6.425-.444.884-2.756,1.453-3.713,1.206-1.655-.425-2.141-3.319-2.374-4.222l-8.975,2.275c1.571,6.097,5.549,12.259,13.922,11.481,4.666-.484,9.795-4.118,10.196-12.87.171-3.727,1.112-8.036,7.169-7.766,2.197.01,3.755,1.085,4.544,4.246l-7.393,1.304,3.262,9.717c-1.973.843-4.012,1.521-5.684,2.725-8.546,6.155-12.043,13.369-10.613,27.776,1.464,14.758,10.972,31.936,33.08,28.014,8.289-1.223,14.576-4.001,22.697-8.351,9.952-5.331,12.139-17.452,10.072-29.377M89.241,109.963c-6.879,2.05-16.101-4.032-19.281-15.019-3.184-10.987-.737-21.794,6.264-24.121,8.931-2.968,19.207,3.733,22.392,14.719,3.18,10.988-.356,21.734-9.374,24.421"/>
      <path class="cls-1" d="M85.917,82.419c-2.278,1.162-2.406,5.409-1.145,8.183,1.223,2.691,4.355,5.324,6.662,4.483,2.447-.892,3.299-5.45,1.833-8.581-1.369-2.924-5.064-5.252-7.35-4.085"/>
    </g>
  </g>
</svg>