<?xml version="1.0" encoding="UTF-8"?>
<svg id="Layer_2" data-name="Layer 2" xmlns="http://www.w3.org/2000/svg" xmlns:xlink="http://www.w3.org/1999/xlink" viewBox="0 0 190.277 190">
  <defs>
    <style>
      .cls-1 {
        font-size: 8.841px;
      }

      .cls-1, .cls-2, .cls-3, .cls-4, .cls-5, .cls-6, .cls-7, .cls-8, .cls-9, .cls-10, .cls-11, .cls-12, .cls-13, .cls-14, .cls-15, .cls-16, .cls-17, .cls-18, .cls-19, .cls-20, .cls-21, .cls-22, .cls-23, .cls-24, .cls-25, .cls-26, .cls-27 {
        fill: #68773f;
      }

      .cls-1, .cls-2, .cls-3, .cls-5, .cls-6, .cls-7, .cls-8, .cls-9, .cls-10, .cls-11, .cls-12, .cls-13, .cls-14, .cls-15, .cls-16, .cls-17, .cls-18, .cls-19, .cls-20, .cls-21, .cls-22, .cls-23, .cls-24, .cls-25, .cls-26, .cls-27 {
        font-family: AntiqueOli-Bol, AntiqueOli-Bol;
      }

      .cls-2 {
        font-size: 8.841px;
      }

      .cls-3 {
        font-size: 8.841px;
      }

      .cls-4, .cls-28, .cls-29, .cls-30 {
        stroke-width: 0px;
      }

      .cls-5 {
        font-size: 8.841px;
      }

      .cls-6 {
        font-size: 8.841px;
      }

      .cls-7 {
        font-size: 8.841px;
      }

      .cls-8 {
        font-size: 8.841px;
      }

      .cls-31 {
        clip-path: url(#clippath-2);
      }

      .cls-9 {
        font-size: 8.841px;
      }

      .cls-10 {
        font-size: 8.841px;
      }

      .cls-11 {
        font-size: 8.841px;
      }

      .cls-12 {
        font-size: 8.841px;
      }

      .cls-32 {
        stroke: #68773f;
        stroke-miterlimit: 10;
        stroke-width: .737px;
      }

      .cls-32, .cls-28 {
        fill: none;
      }

      .cls-13 {
        font-size: 8.841px;
      }

      .cls-33 {
        clip-path: url(#clippath-1);
      }

      .cls-34 {
        clip-path: url(#clippath-4);
      }

      .cls-14 {
        font-size: 8.841px;
      }

      .cls-15 {
        font-size: 8.841px;
      }

      .cls-16 {
        font-size: 8.841px;
      }

      .cls-17 {
        font-size: 8.841px;
      }

      .cls-18 {
        font-size: 8.841px;
      }

      .cls-35 {
        clip-path: url(#clippath);
      }

      .cls-19 {
        font-size: 8.841px;
      }

      .cls-36 {
        clip-path: url(#clippath-3);
      }

      .cls-29 {
        fill: #7f483e;
      }

      .cls-20 {
        font-size: 8.841px;
      }

      .cls-37 {
        fill: #231f20;
        font-family: Helvetica-Bold, Helvetica;
        font-size: 14px;
        font-weight: 700;
      }

      .cls-21 {
        font-size: 8.841px;
      }

      .cls-22 {
        font-size: 8.841px;
      }

      .cls-30 {
        fill: #fff;
      }

      .cls-23 {
        font-size: 8.841px;
      }

      .cls-24 {
        font-size: 8.841px;
      }

      .cls-25 {
        font-size: 8.841px;
      }

      .cls-26 {
        font-size: 8.841px;
      }

      .cls-27 {
        font-size: 8.841px;
      }
    </style>
    <clipPath id="clippath">
      <rect class="cls-28" x="6.248" y="15.193" width="173.887" height="122.553"/>
    </clipPath>
    <clipPath id="clippath-1">
      <rect class="cls-28" x="-136.914" y="-20.559" width="337.398" height="324.66"/>
    </clipPath>
    <clipPath id="clippath-2">
      <rect class="cls-28" x="-136.914" y="-20.559" width="337.398" height="324.66"/>
    </clipPath>
    <clipPath id="clippath-3">
      <rect class="cls-28" x="-136.914" y="-20.559" width="337.398" height="324.66"/>
    </clipPath>
    <clipPath id="clippath-4">
      <rect class="cls-28" x="-136.914" y="-20.559" width="337.398" height="324.66"/>
    </clipPath>
  </defs>
  <g id="Layer_1-2" data-name="Layer 1">
    <rect class="cls-30" x=".277" width="190" height="190"/>
    <text class="cls-37" transform="translate(52.728 158.919)"><tspan x="0" y="0">Norsk Fisker</tspan></text>
    <g class="cls-35">
      <g class="cls-33">
        <g class="cls-31">
          <g class="cls-36">
            <path class="cls-29" d="M71.113,87.304c-6.35,3.287-9.283,10.223-4.595,19.281,5.21,10.067,12.046,10.668,18.395,7.383,6.35-3.287,9.457-9.898,4.599-19.284-4.72-9.121-12.049-10.666-18.399-7.38M80.827,112.593l-.075-.51-.407-2.713-.357-2.383c-2.185-1.175-4.461-3.612-6.121-6.819-2.072-4.004-2.609-8.097-1.621-10.606,2.617.647,5.654,3.451,7.722,7.448,1.647,3.182,2.321,6.425,2.038,8.872l1.994,1.633,1.914,1.568.656.536-5.742,2.972Z"/>
            <path class="cls-29" d="M141.779,68.679c.673.684,1.247,1.466,1.703,2.346.999,1.931,1.291,4.062.974,6.158-.58,3.85-3.224,7.579-7.336,9.708-1.346.697-2.737,1.163-4.127,1.417-5.17.952-10.271-1.065-12.505-5.382l7.666-3.968,1.999,3.863c1.096,2.116,3.701,2.944,5.816,1.849,2.117-1.096,2.945-3.701,1.849-5.817l-.673-1.302-18.467.936c-.673-.685-1.247-1.466-1.703-2.346-1-1.931-1.291-4.062-.975-6.158.583-3.852,3.228-7.582,7.341-9.71,1.345-.697,2.736-1.163,4.126-1.417,5.17-.951,10.268,1.067,12.501,5.384l-7.662,3.966-1.999-3.862c-.547-1.059-1.473-1.797-2.525-2.128-1.051-.337-2.233-.27-3.291.278-2.117,1.096-2.945,3.7-1.849,5.816l.674,1.302,9.471-.48,8.992-.453Z"/>
            <path class="cls-29" d="M156.563,90.3c.194.197.359.422.49.676.288.555.372,1.169.281,1.773-.167,1.108-.928,2.182-2.112,2.794-.387.2-.788.335-1.188.408-1.488.274-2.956-.306-3.6-1.549l2.206-1.142.575,1.112c.315.609,1.065.847,1.675.532s.848-1.065.533-1.675l-.194-.374-5.315.269c-.194-.197-.359-.422-.49-.676-.288-.555-.372-1.169-.281-1.773.168-1.109.929-2.182,2.113-2.795.388-.2.788-.334,1.188-.407,1.488-.274,2.956.307,3.599,1.549l-2.206,1.142-.575-1.112c-.158-.305-.424-.517-.727-.613-.302-.097-.642-.077-.947.08-.609.315-.847,1.065-.532,1.675l.194.375,2.727-.139,2.588-.13Z"/>
            <path class="cls-29" d="M170.533,85.456c.306.591.077,1.318-.514,1.624-.591.306-1.319.074-1.624-.516l-1.235-2.386,4.267-2.208c-.019-.038-.04-.071-.059-.102-.136-.221-.278-.423-.427-.606-1.281-1.585-2.965-1.767-4.45-.998-1.773.917-2.591,2.855-1.283,5.382,1.455,2.811,3.363,2.979,5.136,2.062,1.546-.8,2.405-2.311,1.692-4.428l-2.074,1.074.571,1.102ZM166.299,82.514c-.306-.591-.074-1.319.516-1.624.294-.153.624-.169.916-.077.295.092.553.3.706.595l.469.907-2.139,1.107-.469-.908Z"/>
            <polygon class="cls-29" points="144.844 92.698 145.4 93.772 146.074 93.422 148.875 98.833 151.082 97.691 147.726 91.206 144.844 92.698"/>
            <path class="cls-29" d="M146.332,88.482c-.717-1.384-2.465-1.946-4.122-1.412-.223.071-.445.164-.662.277-.895.463-1.55,1.191-1.887,1.999-.342.81-.364,1.706.016,2.489l4.803,9.278s2.203-1.134,2.203-1.134c.002-.001.004-.005.002-.007l-2.803-5.415,1.211-.627-.555-1.073-1.211.627-1.518-2.934c-.085-.165-.133-.342-.144-.521-.029-.455.177-.906.586-1.152.273-.163.577-.211.861-.158.055.009.105.021.158.038.209.065.384.203.534.371-.085.333-.057.695.113,1.025.369.714,1.248.993,1.962.624.714-.37.993-1.248.623-1.962-.025-.049-.058-.09-.088-.134-.028-.066-.046-.135-.08-.2"/>
            <path class="cls-29" d="M162.621,85.602h0c-.018-.004-.037-.006-.055-.009-.038-.006-.075-.013-.113-.018h0c-.015-.002-.031-.004-.046-.005-.041-.005-.083-.01-.124-.014h0c-.024-.002-.049-.003-.073-.004-.033-.002-.066-.005-.099-.007h0c-.028-.001-.056-.001-.084-.001-.03,0-.06-.002-.09-.002h0c-.029,0-.059.001-.088.002-.029,0-.058,0-.087.002h0c-.027.001-.055.004-.083.006-.031.002-.062.004-.093.007h0c-.031.003-.062.007-.094.011-.028.003-.055.006-.083.01-.031.004-.062.01-.093.015-.029.004-.057.008-.085.013h0s0,0-.001,0c-.097.018-.195.04-.293.066-.032.008-.064.019-.096.028-.065.019-.13.038-.195.059-.039.013-.077.029-.115.043-.059.021-.117.043-.175.067-.041.018-.081.038-.122.056-.047.021-.095.041-.142.065v.002c-.015.007-.031.014-.046.021l-.006.004.004-.009v-.003s.084-.242.084-.242l.472-1.377h0s0,0,0,0l.013.025c.31.565,1.016.782,1.591.485.559-.29.778-.978.488-1.536-.158-.305-.424-.516-.727-.613-.302-.097-.642-.077-.947.08l-.965.499s0,0,0,.001h0s-.002,0-.002.001l-1.11,3.256h0s-2.432-4.698-2.432-4.698l-.928-1.794-.074.038-.004-.008-3.202,1.658.655,1.265,1.069-.553,5.586,10.793s.001,0,.001,0l2.205-1.14s0-.001,0-.002l-.007-.014-1.943-3.755c-.287-.555-.147-1.253.363-1.613.081-.057.166-.102.252-.138.005-.002.01-.005.015-.007.042-.017.085-.031.129-.043.013-.004.027-.006.04-.009.03-.007.061-.014.091-.019.017-.002.033-.004.049-.006.028-.004.056-.006.084-.007.017,0,.034-.001.051-.001.028,0,.055,0,.083.002.017.001.033.002.049.004.029.003.059.007.088.013.014.002.028.004.041.007.043.009.085.019.126.032.303.097.569.309.726.613l.729,1.409,1.118,2.159.114.22.007.013s.001,0,.002,0l2.204-1.14s0-.001,0-.002l-1.238-2.393-.161-.311c-.437-.844-1.257-1.384-2.204-1.556"/>
            <path class="cls-29" d="M176.331,74.909c-.006,0-.012,0-.018.001-.02,0-.04.003-.059.005-.356.032-.707.131-1.038.302-.883.458-1.432,1.332-1.578,2.334,0,.006-.008.007-.011.001l-.508-.983h0l-.002-.005-3.202,1.658.656,1.267.995-.516,3.315,6.403s.004.004.007.003l2.196-1.137s.004-.005.003-.008l-2.717-5.25c-.086-.165-.134-.343-.144-.52-.029-.455.176-.908.585-1.154.272-.163.577-.209.862-.158.053.01.106.022.157.038.303.095.569.308.727.612l.371.717s.005.004.008.003l2.196-1.137s.004-.005.003-.008l-.631-1.219c-.417-.805-1.266-1.311-2.171-1.251"/>
            <path class="cls-29" d="M52.152,97.146c-.022.002-.041.002-.062.004-.097.009-.196.014-.291.027-1.207.117-2.399.462-3.519,1.042-3.088,1.598-5.001,4.663-5.49,8.172l-1.807-3.491-.058.03-10.096,5.226,2.157,4.168,2.489-1.288,11.695,22.586,7.666-3.968-9.57-18.481c-.32-.619-.476-1.276-.485-1.926-.021-1.58.835-3.116,2.334-3.891.804-.416,1.68-.556,2.515-.449.264.029.525.088.776.17,1.052.332,1.978,1.069,2.525,2.128l9.518,18.39,7.666-3.968-10.422-20.135c-1.449-2.8-4.397-4.557-7.542-4.345"/>
            <path class="cls-29" d="M104.745,69.925c-.022.002-.041.002-.062.004-.068.003-.138.011-.203.018-1.238.111-2.457.455-3.606,1.051-3.069,1.588-4.977,4.627-5.482,8.107-.003.021-.029.024-.038.007l-1.767-3.415-.01-.018-10.157,5.257,2.157,4.168,2.392-1.238c.049.01.095.027.144.035l11.589,22.39c.005.011.016.015.027.009l7.629-3.949c.011-.006.015-.017.009-.028l-9.44-18.238c-.297-.575-.463-1.189-.501-1.806-.103-1.58.613-3.153,2.033-4.009.943-.566,2.002-.727,2.994-.549.183.034.368.077.544.133,1.052.332,1.978,1.07,2.525,2.128l1.289,2.491c.006.011.017.015.028.009l7.63-3.949c.011-.006.015-.017.009-.027l-2.193-4.237c-1.447-2.797-4.4-4.556-7.542-4.345"/>
            <path class="cls-29" d="M162.908,52.316h-.002c-.063-.012-.127-.02-.191-.03-.13-.022-.26-.045-.392-.063h-.001c-.054-.007-.108-.012-.162-.018-.142-.018-.285-.035-.429-.048h-.001c-.084-.007-.169-.011-.253-.017-.115-.008-.23-.018-.346-.022h0c-.097-.004-.195-.004-.291-.006-.105-.002-.208-.007-.314-.006t-.001,0c-.102,0-.206.005-.309.007-.1.003-.2.003-.301.008h0c-.097.004-.195.013-.291.02-.108.008-.214.013-.323.023h-.002c-.108.01-.216.025-.323.038-.097.011-.195.021-.292.034-.108.015-.215.034-.323.052-.098.015-.196.029-.295.047-.001,0-.004,0-.005,0-.34.063-.679.139-1.019.227-.112.029-.223.068-.334.099-.228.065-.455.128-.681.205-.133.046-.266.101-.399.15-.203.075-.407.148-.609.234-.141.06-.281.129-.422.194-.164.075-.329.144-.492.225-.001.003-.001.005-.003.007-.052.027-.106.048-.158.075l-.022.011.013-.029.004-.01.288-.84,1.641-4.783s0-.002,0-.003h0s.046.088.046.088c1.076,1.965,3.528,2.72,5.528,1.685,1.942-1.006,2.702-3.395,1.697-5.337-.548-1.059-1.472-1.792-2.526-2.128-1.051-.337-2.232-.269-3.291.278l-3.353,1.736s-.004.001-.001.005l.002.005s-.006-.003-.007,0l-3.853,11.309s0,.002,0,.003l-8.449-16.322-3.226-6.233-.428.222s0,0-.001.001c-.004.007-.007.013-.011.019l-.006-.011-10.158,5.257,2.157,4.168,2.939-1.521,19.509,37.693s.004.003.005.002l7.659-3.964s.003-.004.001-.005l-.025-.049-6.751-13.044c-.998-1.927-.509-4.353,1.263-5.606.281-.198.575-.355.875-.479.018-.007.035-.017.052-.024.148-.058.298-.107.449-.148.046-.013.092-.021.138-.032.105-.026.211-.049.318-.066.057-.009.114-.015.171-.021.097-.012.194-.021.29-.025.06-.003.119-.004.178-.005.096,0,.192.002.287.008.057.003.114.006.172.012.102.01.204.026.306.043.048.008.097.014.144.024.148.031.295.067.439.113,1.05.337,1.974,1.072,2.522,2.13l2.532,4.891,3.883,7.502.396.766.024.045s.004.003.005.002l7.659-3.964s.003-.004.002-.005l-4.303-8.313-.559-1.081c-1.519-2.934-4.365-4.809-7.657-5.405"/>
            <path class="cls-32" d="M70.446,46.099c0,16.257-13.178,29.436-29.436,29.436s-29.435-13.179-29.435-29.436,13.178-29.436,29.435-29.436,29.436,13.179,29.436,29.436Z"/>
            <path class="cls-32" d="M58.393,45.867c0,3.05-.781,5.909-2.166,8.399-.619,1.135-1.37,2.188-2.232,3.146-1.503,1.702-3.337,3.094-5.4,4.096-2.291,1.112-4.862,1.739-7.581,1.739-2.895,0-5.629-.707-8.03-1.974-1.827-.936-3.463-2.203-4.833-3.713-.877-.958-1.643-2.019-2.276-3.153-1.437-2.52-2.247-5.43-2.247-8.539,0-4.059,1.385-7.787,3.728-10.741.788-1.017,1.702-1.938,2.704-2.748,2.991-2.431,6.807-3.89,10.955-3.89,4.023,0,7.736,1.37,10.682,3.684,1.009.774,1.93,1.672,2.748,2.667,2.468,2.998,3.949,6.837,3.949,11.029Z"/>
          </g>
          <text class="cls-11" transform="translate(20.676 47.548) rotate(-86.801)"><tspan x="0" y="0">V</tspan></text>
          <text class="cls-12" transform="translate(21.09 42.275) rotate(-76.238)"><tspan x="0" y="0">I</tspan></text>
          <text class="cls-2" transform="translate(21.424 40.093) rotate(-65.111)"><tspan x="0" y="0">N</tspan></text>
          <text class="cls-10" transform="translate(23.769 35.024) rotate(-50.165)"><tspan x="0" y="0">G</tspan></text>
          <text class="cls-7" transform="translate(26.905 31.164) rotate(-35.859)"><tspan x="0" y="0">U</tspan></text>
          <text class="cls-19" transform="translate(31.076 27.932) rotate(-18.705)"><tspan x="0" y="0">M</tspan></text>
          <text class="cls-17" transform="translate(37.533 25.674) rotate(.428)"><tspan x="0" y="0">M</tspan></text>
          <text class="cls-5" transform="translate(44.45 25.956) rotate(13.197)"><tspan x="0" y="0">I</tspan></text>
          <text class="cls-18" transform="translate(46.682 26.478) rotate(19.36)"><tspan x="0" y="0"> </tspan></text>
          <text class="cls-22" transform="translate(48.631 27.144) rotate(25.64)"><tspan x="0" y="0">-</tspan></text>
          <text class="cls-13" transform="translate(50.719 28.021) rotate(35.234)"><tspan x="0" y="0">S</tspan></text>
          <text class="cls-15" transform="translate(54.386 30.493) rotate(48.989)"><tspan x="0" y="0">O</tspan></text>
          <text class="cls-3" transform="translate(57.917 34.58) rotate(62.814)"><tspan x="0" y="0">F</tspan></text>
          <text class="cls-15" transform="translate(59.988 38.482) rotate(75.983)"><tspan x="0" y="0">T</tspan></text>
          <text class="cls-16" transform="translate(61.081 43.295) rotate(85.729)"><tspan x="0" y="0"> </tspan></text>
          <text class="cls-21" transform="translate(61.356 45.252) rotate(95.041)"><tspan x="0" y="0">C</tspan></text>
          <text class="cls-26" transform="translate(61.044 49.846) rotate(109.191)"><tspan x="0" y="0">H</tspan></text>
          <text class="cls-27" transform="translate(59.253 54.956) rotate(123.304)"><tspan x="0" y="0">E</tspan></text>
          <text class="cls-13" transform="translate(57.018 58.89) rotate(140.345)"><tspan x="0" y="0">W</tspan></text>
          <text class="cls-9" transform="translate(51.014 63.697) rotate(158.541)"><tspan x="0" y="0">Y</tspan></text>
          <text class="cls-6" transform="translate(46.013 65.525) rotate(168.869)"><tspan x="0" y="0"> </tspan></text>
          <text class="cls-20" transform="translate(44.083 66.036) rotate(178.25)"><tspan x="0" y="0">C</tspan></text>
          <text class="cls-23" transform="translate(39.521 66.283) rotate(-167.491)"><tspan x="0" y="0">A</tspan></text>
          <text class="cls-25" transform="translate(34.031 65.115) rotate(-151.657)"><tspan x="0" y="0">N</tspan></text>
          <text class="cls-8" transform="translate(29.119 62.496) rotate(-136.359)"><tspan x="0" y="0">D</tspan></text>
          <text class="cls-14" transform="translate(25.237 58.855) rotate(-121.554)"><tspan x="0" y="0">Y</tspan></text>
          <text class="cls-1" transform="translate(22.566 54.26) rotate(-111.198)"><tspan x="0" y="0"> </tspan></text>
          <text class="cls-24" transform="translate(21.806 52.344) rotate(-104.927)"><tspan x="0" y="0">-</tspan></text>
          <g class="cls-34">
            <path class="cls-4" d="M56.227,54.266l-11.832-7.146-.243-1.93h.604s.066-1.65-.685-3.057l.479-.523,2.741,1.098,7.154-7.868c-.818-.995-1.739-1.893-2.748-2.667l-8.023,9.349c-.582-.744-1.488-1.326-2.888-1.363-1.753-.044-2.726.825-3.278,1.849l-.567-.449.914-2.814-7.795-6.365c-1.002.81-1.915,1.731-2.704,2.748l9.865,7.522c-.464,1.267-.413,2.542-.413,2.542h.818l-.413,2.748-.523.486-2.637-1.326-8.178,7.308c.634,1.135,1.4,2.195,2.276,3.153l8.885-8.443-.796,5.334-3.256,6.822c2.402,1.267,5.135,1.974,8.03,1.974,2.719,0,5.29-.626,7.581-1.739l-3.234-6.653-.42-3.352,9.054,5.909c.862-.958,1.613-2.011,2.232-3.146M44.815,50.457l-.317-2.505,1.009.634-.693,1.871Z"/>
          </g>
        </g>
      </g>
    </g>
    <rect class="cls-28" x="28.511" y="34.979" width="125.277" height="88.851"/>
  </g>
</svg>