<?xml version="1.0" encoding="UTF-8"?>
<svg id="Layer_2" data-name="Layer 2" xmlns="http://www.w3.org/2000/svg" viewBox="0 0 451.426 75.064">
  <defs>
    <style>
      .cls-1 {
        fill: #000;
      }

      .cls-1, .cls-2 {
        stroke-width: 0px;
      }

      .cls-2 {
        fill: #fff;
      }
    </style>
  </defs>
  <g id="Layer_1-2" data-name="Layer 1">
    <rect class="cls-2" width="451.426" height="75.064"/>
    <path class="cls-1" d="M157.946,25.552s-5.798-.34-9.896-.36c-5.278-.026-11.868,2.283-12.115,10.796-.28,9.616-.32,11.036.06,15.534.217,2.571,1.759,9.376,7.317,9.376,5.998,0,10.316-.02,13.855-1.2l.62-6.817s-5.598,1.26-11.276,1.26c-2.639,0-3.391-3.005-3.539-4.918-.22-2.859-.02-7.597.1-10.956s1.122-5.426,3.539-5.878c2.779-.52,8.277-.18,10.676-.06l.66-6.777"/>
    <g>
      <polygon class="cls-1" points="129.674 60.899 123.317 60.899 123.384 30.442 129.741 30.442 129.674 60.899"/>
      <polygon class="cls-1" points="129.939 23.084 123.583 23.084 123.384 16.047 129.741 16.047 129.939 23.084"/>
    </g>
    <path class="cls-1" d="M116.708,60.899h-6.357s.067-46.833.067-46.833h6.357c.22,14.908.061,30.916-.067,46.833Z"/>
    <path class="cls-1" d="M95.405,25.19c-4.734,0-8.037,1.466-10.053,2.728l.021-14.617h-6.357l-.067,46.644c5.705,1.266,9.833.934,12.18.859,5.087-.75,12.804-1.51,12.804-22.302,0-6.118-.24-13.312-8.528-13.312ZM97.687,42.66c0,5.218-1.891,11.869-7.209,11.869-2.032,0-3.778-.156-5.163-.348l.029-19.841c2.215-2.044,5.136-3.035,8.877-3.035,3.993,0,3.467,5.718,3.467,11.356Z"/>
    <path class="cls-1" d="M44.35,20.925c.088-4.642-4.401-7.579-8.802-7.579s-13.783.378-15.861.94l.244,46.612h6.357l-.112-21.301c2.391.054,5.966.116,9.784.116,6.764,0,8.157-6.02,8.226-7.825.069-1.805.331-7.769.163-10.964ZM35.179,34.384c-3.189,0-6.606-.174-9.03-.33l-.074-14.196c2.069-.141,6.212-.401,8.534-.401,3.178,0,3.178,2.934,3.178,2.934v5.504c0,1.385.414,6.489-2.608,6.489Z"/>
    <path class="cls-1" d="M72.903,25.104h-6.357c-.195,8.713-.226,18.129-.148,28.014-1.802.469-5.758,1.396-7.935,1.124-2.3-.287-2.731-1.801-2.819-3.959-.3-7.377.3-25.311.3-25.311h-6.178s-1.02,25.43-.06,30.948c.524,3.014,3.479,4.738,8.517,4.738,3.042,0,6.502-.855,8.237-1.344.006.529.011,1.053.018,1.584h6.357c.086-11.86.11-23.789.067-35.795Z"/>
    <path class="cls-1" d="M176.329,25.232c-7.357,0-13.195,4.958-13.195,17.194,0,9.916,3.679,18.473,13.435,18.473,8.157,0,13.195-5.278,13.195-19.433,0-10.556-4.158-16.234-13.435-16.234ZM176.51,54.421c-4.893,0-6.738-5.506-6.738-11.887,0-7.873,2.928-11.064,6.617-11.064,4.652,0,6.738,3.654,6.738,10.447,0,9.108-2.527,12.505-6.617,12.505Z"/>
    <path class="cls-1" d="M220.097,28.023s-5.278-2.719-11.356-2.719-11.036,1.04-12.795,4.238c-1.048,1.906-1.531,8.73.56,10.716,4.798,4.558,14.635,3.679,16.954,6.238,1.633,1.802,1.439,5.998-.96,7.677-2.256,1.579-16.154-1.599-16.154-1.599l-1.599,6.078s6.318,2.399,13.995,2.239c4.318-.09,10.396-.72,11.596-5.278,1.163-4.419.89-8.918.16-11.036-.8-2.319-3.999-4.318-7.117-5.118-3.119-.8-11.916-.96-11.996-4.958-.053-2.643,4.038-3.359,7.697-3.119,2.314.152,7.097,1.2,8.457,1.759l2.559-5.118Z"/>
  </g>
</svg>