<?xml version="1.0" encoding="UTF-8"?>
<svg id="Layer_2" data-name="Layer 2" xmlns="http://www.w3.org/2000/svg" viewBox="0 0 190.277 190">
  <defs>
    <style>
      .cls-1, .cls-2 {
        fill: #231f20;
      }

      .cls-1, .cls-3 {
        stroke-width: 0px;
      }

      .cls-2 {
        font-family: Helvetica-Bold, Helvetica;
        font-size: 14px;
        font-weight: 700;
      }

      .cls-3 {
        fill: #fff;
      }
    </style>
  </defs>
  <g id="Layer_1-2" data-name="Layer 1">
    <rect class="cls-3" x=".277" width="190" height="190"/>
    <text class="cls-2" transform="translate(81.132 158.919)"><tspan x="0" y="0">Tika</tspan></text>
    <polygon class="cls-1" points="50.404 135.704 32.169 17.327 153.703 15.533 153.703 133.592 50.404 135.704"/>
    <g>
      <polygon class="cls-3" points="60.541 50.115 63.983 79.132 73.745 78.437 69.409 51.377 68.356 36.589 71.083 36.209 84.956 35.221 84.4 27.417 69.158 28.502 42.6 32.633 43.203 41.107 44.836 39.87 59.664 37.802 60.541 50.115"/>
      <polygon class="cls-3" points="82.97 48.432 78.205 47.997 79.01 59.3 81.087 71.545 81.538 77.882 84.143 78.213 89.697 76.441 86.209 58.873 86.407 48.359 82.97 48.432"/>
      <polygon class="cls-3" points="96.731 77.317 101.838 77.728 103.636 77.6 102.149 56.706 110.019 63.289 113.612 79.902 115.073 81.089 119.306 80.099 120.921 79.812 115.903 61.321 106.927 52.493 113.951 43.559 115.278 41.657 109.896 39.802 102.597 48.498 101.999 42.516 100.297 27.059 95.477 27.058 92.804 25.785 91.434 25.883 94.561 46.832 96.731 77.317"/>
      <path class="cls-3" d="M131.212,51.496l-7.331,3.405-.474,13.89,5.478,8.044,6.524-3.934,3.76,4.069,3.98-5.282-3.461-2.68,1.749-22.587-.962-9.512-1.91-.612-11.292-.32.429,1.035-4.525,8.52,4.249,2.64,4.427-7.259,3.112,1.554-.216,7.847-3.536,1.182ZM134.056,62.509l-.198,4.016-3.153,2.328-1.804-1.163,1.611-10.259,3.823-1.664-.279,6.741Z"/>
      <polygon class="cls-3" points="144.364 87.068 143.649 98.817 141.426 100.186 99.467 98.852 96.748 97.379 56.733 96.551 55.46 86.972 100.722 84.453 100.993 86.048 101.943 87.295 144.364 87.068"/>
      <path class="cls-3" d="M108.138,112.181l-13.043-1.798-27.529.431,1.664,9.992,19.339.878,20.128,2.517,25.692-2.799-.549-8.454,1.71-3.477-27.411,2.711Z"/>
      <polygon class="cls-3" points="88.093 91.073 88.087 91.117 88.076 91.074 88.093 91.073"/>
    </g>
  </g>
</svg>