<?xml version="1.0" encoding="UTF-8"?>
<svg id="Layer_2" data-name="Layer 2" xmlns="http://www.w3.org/2000/svg" viewBox="0 0 451.426 75.064">
  <defs>
    <style>
      .cls-1 {
        fill: #231f20;
      }

      .cls-1, .cls-2 {
        stroke-width: 0px;
      }

      .cls-2 {
        fill: #fff;
      }
    </style>
  </defs>
  <g id="Layer_1-2" data-name="Layer 1">
    <rect class="cls-2" width="451.426" height="75.064"/>
    <path class="cls-1" d="M18.456,16.284h17.201s1.339,6.981,4.956,6.981c4.473,0,4.738-6.981,4.738-6.981h13.119s2.128,18.225,2.128,25.184c0,11.006-7.749,18.377-15.903,18.388-18.185.024-27.669-5.815-27.669-19.153,0-7.184,1.43-24.419,1.43-24.419Z"/>
    <path class="cls-1" d="M69.161,16.284v43.572h43.572v-15.126s-6.863-.622-7.016-4.136c-.137-3.152,6.359-4.063,6.359-4.063l.073-5.466s-5.867-.62-5.867-3.48c0-3.152,6.451-3.644,6.451-3.644v-7.655h-43.572Z"/>
    <path class="cls-1" d="M164.868,16.284v43.572h-26.08s-1.462-7.801-4.902-7.801c-3.095,0-4.209,7.801-4.209,7.801h-8.381V16.284l27.586.057s1.339,4.665,4.154,4.665c3.088,0,4.191-4.722,4.191-4.722h7.64Z"/>
    <path class="cls-1" d="M385.223,16.284v43.572h-26.08s-1.462-7.801-4.902-7.801c-3.095,0-4.209,7.801-4.209,7.801h-8.381V16.284l27.586.057s1.339,4.665,4.154,4.665c3.088,0,4.191-4.722,4.191-4.722h7.64Z"/>
    <path class="cls-1" d="M197.209,16.288c-16.066-1.447-23.851,12.469-23.774,21.778.128,16.811,11.579,21.273,18.738,21.787.762.06,2.287,0,3.049,0,10.731,0,21.778-7.031,21.778-21.787,0-9.626-3.066-20.28-19.791-21.778ZM198.082,35.54h-.462c-2.398-.351-2.929-2.167-2.852-3.314.171-2.252,1.182-3.563,3.623-3.306,2.235.394,2.775,1.405,3.006,3.306.206,2.475-1.13,3.143-3.314,3.314Z"/>
    <path class="cls-1" d="M326.834,16.29h-19.757c-6.372,8.615-9.917,24.81-12.495,43.565h23.448s1.165-7.108,5.027-7.142c3.46-.034,4.162,7.142,4.162,7.142h10.928c-1.028-17.196-4.051-32.449-11.313-43.565ZM323.991,47.831c-2.441,0-3.939-2.304-3.939-3.648.009-1.053,1.062-3.023,3.134-2.843,1.122.103,2.869,1.293,2.92,3.426.017.933-.24,3.066-2.115,3.066Z"/>
    <path class="cls-1" d="M290.044,16.284h-26.149c-9.582,0-17.141,8.149-16.422,17.705l.131,1.734c.13,1.729,1.272,3.2,2.902,3.79,2.313.836,5.288,2.426,5.288,5.072,0,3.653-7.962,4.41-7.962,4.41v9.503c0,.751.609,1.36,1.36,1.36h30.826c6.99,0,12.442-6.054,11.712-13.006l-.838-7.973c-.147-1.404-.952-2.672-2.193-3.346-1.672-.908-3.823-2.471-3.823-4.503,0-4.218,6.528-5.029,6.528-5.029v-8.355c0-.751-.609-1.36-1.36-1.36Z"/>
    <path class="cls-1" d="M433.488,16.284h-26.149c-9.582,0-17.141,8.149-16.422,17.705l.131,1.734c.13,1.729,1.272,3.2,2.902,3.79,2.313.836,5.288,2.426,5.288,5.072,0,3.653-7.962,4.41-7.962,4.41v9.503c0,.751.609,1.36,1.36,1.36h30.826c6.99,0,12.442-6.054,11.712-13.006l-.838-7.973c-.147-1.404-.952-2.672-2.193-3.346-1.672-.908-3.823-2.471-3.823-4.503,0-4.218,6.528-5.029,6.528-5.029v-8.355c0-.751-.609-1.36-1.36-1.36Z"/>
  </g>
</svg>