<?xml version="1.0" encoding="UTF-8"?>
<svg id="Layer_2" data-name="Layer 2" xmlns="http://www.w3.org/2000/svg" viewBox="0 0 190.277 190">
  <defs>
    <style>
      .cls-1, .cls-2 {
        fill: #231f20;
      }

      .cls-1, .cls-3 {
        stroke-width: 0px;
      }

      .cls-2 {
        font-family: Helvetica-Bold, Helvetica;
        font-size: 14px;
        font-weight: 700;
      }

      .cls-3 {
        fill: #fff;
      }
    </style>
  </defs>
  <g id="Layer_1-2" data-name="Layer 1">
    <rect class="cls-3" x=".277" width="190" height="190"/>
    <text class="cls-2" transform="translate(45.742 158.919)"><tspan x="0" y="0">Ueno Park Zoo</tspan></text>
    <g>
      <path class="cls-1" d="M22.917,19.395h12.96s1.009,5.261,3.735,5.261c3.371,0,3.57-5.261,3.57-5.261h9.885s1.602,13.733,1.602,18.976c0,8.292-5.838,13.844-11.982,13.853-13.702.018-20.848-4.381-20.848-14.431,0-5.413,1.079-18.399,1.079-18.399"/>
      <path class="cls-1" d="M59.584,19.395v32.83h32.83v-11.398s-5.172-.468-5.286-3.115c-.103-2.375,4.791-3.062,4.791-3.062l.056-4.118s-4.421-.468-4.421-2.623c0-2.375,4.86-2.745,4.86-2.745v-5.769h-32.83Z"/>
      <path class="cls-1" d="M131.697,19.395v32.83h-19.649s-1.103-5.878-3.694-5.878c-2.331,0-3.171,5.878-3.171,5.878h-6.315V19.395l20.786.042s1.009,3.516,3.131,3.516c2.326,0,3.158-3.559,3.158-3.559h5.756Z"/>
      <path class="cls-1" d="M154.527,19.398c-12.106-1.09-17.971,9.397-17.913,16.409.096,12.668,8.724,16.028,14.119,16.416.575.045,1.723,0,2.297,0,8.084,0,16.409-5.297,16.409-16.416,0-7.253-2.311-15.28-14.912-16.409M155.185,33.904h-.348c-1.807-.265-2.208-1.633-2.15-2.498.129-1.696.891-2.683,2.73-2.489,1.685.296,2.09,1.056,2.266,2.489.154,1.865-.853,2.369-2.498,2.498"/>
      <path class="cls-1" d="M116.332,94.729c-12.106-1.09-17.971,9.395-17.913,16.409.096,12.668,8.724,16.028,14.119,16.416.575.045,1.723,0,2.297,0,8.084,0,16.409-5.297,16.409-16.416,0-7.253-2.311-15.28-14.912-16.409M116.99,109.236h-.348c-1.807-.265-2.208-1.633-2.15-2.498.129-1.696.891-2.683,2.73-2.489,1.685.296,2.09,1.056,2.266,2.489.154,1.865-.853,2.369-2.498,2.498"/>
      <path class="cls-1" d="M153.308,94.729c-12.106-1.09-17.971,9.395-17.913,16.409.096,12.668,8.724,16.028,14.119,16.416.575.045,1.723,0,2.297,0,8.084,0,16.409-5.297,16.409-16.416,0-7.253-2.311-15.28-14.912-16.409M153.966,109.236h-.348c-1.807-.265-2.208-1.633-2.15-2.498.129-1.696.891-2.683,2.73-2.489,1.685.296,2.09,1.056,2.266,2.489.154,1.865-.853,2.369-2.498,2.498"/>
      <path class="cls-1" d="M30.699,57.096h-8.86v32.825h7.215v-3.298c12.149-.541,25.617-3.503,25.617-11.253v-9.009c0-7.955-14.332-9.31-23.972-9.265M31.57,81.184c-.871,0-2.6-.943-2.6-2.736,0-1.399,1.464-1.916,2.141-2.006.891-.116,3.247.123,3.233,1.838-.018,2.491-1.845,2.903-2.774,2.903"/>
      <path class="cls-1" d="M81.58,57.096h-14.885c-4.802,6.491-7.471,18.693-9.415,32.825h17.668s.876-5.357,3.786-5.381c2.607-.027,3.138,5.381,3.138,5.381h8.234c-.776-12.958-3.053-24.449-8.526-32.825M79.438,80.861c-1.838,0-2.968-1.736-2.968-2.75.007-.793.8-2.277,2.362-2.141.845.078,2.162.974,2.199,2.58.013.704-.18,2.311-1.593,2.311"/>
      <path class="cls-1" d="M128.622,69.382c0-12.287-14.578-12.287-24.224-12.287h-8.608v32.825h7.233s.071-5.045,2.801-4.942c2.955.109,3.465,4.942,3.465,4.942h10.228l-3.795-5.878c6.756-.399,12.9-6.085,12.9-14.66M107.424,80.771c-.891.116-3.247-.123-3.227-1.838.02-2.491,1.838-2.904,2.768-2.904.878,0,2.601.94,2.601,2.734,0,1.402-1.464,1.916-2.141,2.008"/>
      <polygon class="cls-1" points="135.072 57.093 135.072 89.923 143.085 89.923 146.435 84.595 149.236 89.923 167.902 89.923 155.551 70.646 167.902 57.093 158.352 56.97 154.782 60.596 151.047 57.093 135.072 57.093"/>
      <path class="cls-1" d="M60.671,94.727h32.83v16.931s-5.999,1.132-5.999,4.392c0,2.754,5.999,3.322,5.999,3.322v8.185h-32.83l.579-17.657s4.339-1.558,4.339-4.064c0-3.178-4.918-3.788-4.918-3.788v-7.32Z"/>
      <path class="cls-1" d="M59.065,23.373c-.154.016-.27,0-.27,0h.27Z"/>
    </g>
  </g>
</svg>