<?xml version="1.0" encoding="UTF-8"?>
<svg id="Layer_1" xmlns="http://www.w3.org/2000/svg" version="1.1" viewBox="0 0 1080 244.64">
  <!-- Generator: Adobe Illustrator 29.5.1, SVG Export Plug-In . SVG Version: 2.1.0 Build 141)  -->
  <defs>
    <style>
      .st0 {
        fill: #231f20;
      }
    </style>
  </defs>
  <path class="st0" d="M116.98,244.64c0-65.3.31-75.2.31-122.24,0-12.07-9.59-27.85-29.4-32.49-16.71-3.71-29.71-4.33-47.35-4.33-11.14,0-23.83.31-40.54.31L3.71,3.26c59.73,0,111.71,9.28,129.04,73.34C148.85,12.54,196.2,3.26,265.21,3.26l.62,81.7c-11.45,1.86-65.91.93-88.2,4.64-17.33,2.79-29.4,17.95-29.4,33.11,0,57.25.93,58.49,1.24,121.93h-32.49Z"/>
  <path class="st0" d="M431.07,123.33c-8.05-.31-15.78-.62-22.9-.62-45.18,0-77.06,8.05-116.36,21.97l-1.24-66.53c45.49-9.9,71.18-14.54,117.29-14.54,58.49,0,92.84,15.78,92.84,77.06l-.31,103.98h-15.78l.31-10.52c-12.69,4.95-38.37,13.31-73.65,13.31-81.7,0-127.5-16.4-127.5-59.42s57.87-47.66,130.9-47.66c25.69,0,52.92,3.4,70.56,7.43-2.17-11.45-15.16-22.28-54.16-24.45ZM473.16,158.3c-14.85-2.48-38.99-4.02-64.37-4.02-49.82,0-104.29,5.57-104.29,18.57,0,10.21,38.37,14.24,82.01,14.24,35.59,0,74.58-2.79,98.72-6.81l.31-19.81c-4.02-.62-8.97-1.55-12.38-2.17Z"/>
  <path class="st0" d="M757.24,153.34c0-30.64-4.02-73.34-22.59-73.34s-22.9,44.56-22.9,73.34l.62,91.29h-70.25s1.24-55.7,1.24-91.29c0-30.64-4.02-73.34-22.59-73.34s-20.73,44.56-20.73,73.34c0,35.59,1.24,91.29,1.24,91.29h-76.13c1.24-27.23,1.55-54.16,1.55-81.08,0-30.95-.62-61.58-1.55-92.53,10.83-.93,53.54-2.48,63.75-4.33,0,2.17-.93,9.28-1.86,13.93,9.9-9.28,28.16-16.09,41.78-16.09,21.97,0,46.11,5.57,58.49,19.19,10.52-14.23,42.71-19.81,60.04-19.81,47.97,0,86.65,21.97,86.65,90.05,0,26.61-1.24,90.67-1.24,90.67h-76.75s1.24-55.7,1.24-91.29Z"/>
  <path class="st0" d="M1073.81,126.73c-8.05-1.55-61.89-8.05-106.76-8.36h-19.81c-26.92,0-60.03.93-60.03,8.05,0,27.85,192.17,1.86,192.17,56.94,0,41.78-26.92,64.37-108,64.37-41.47,0-115.12-7.43-115.12-7.43l12.07-60.65c38.68,3.71,82.63,5.26,101.19,5.26,51.06,0,80.46,0,80.46-7.12,0-10.52-65.3-14.54-79.53-16.09-24.45-2.79-110.79-2.79-110.79-42.4,0-42.09,56.32-54.77,106.14-54.77h1.86c68.08,0,102.43,4.33,112.33,6.19l-6.19,56.01Z"/>
</svg>