<?xml version="1.0" encoding="UTF-8"?>
<svg id="Layer_1" xmlns="http://www.w3.org/2000/svg" version="1.1" viewBox="0 0 451.43 75.06">
  <!-- Generator: Adobe Illustrator 29.5.1, SVG Export Plug-In . SVG Version: 2.1.0 Build 141)  -->
  <defs>
    <style>
      .st0 {
        fill: #231f20;
      }
    </style>
  </defs>
  <path class="st0" d="M41.57,65.07c0-13.78.07-15.87.07-25.79,0-2.55-2.02-5.88-6.2-6.85-3.53-.78-6.27-.91-9.99-.91-2.35,0-5.03.07-8.55.07l.78-17.43c12.6,0,23.57,1.96,27.22,15.47,3.4-13.51,13.39-15.47,27.95-15.47l.13,17.24c-2.42.39-13.91.2-18.61.98-3.66.59-6.2,3.79-6.2,6.99,0,12.08.2,12.34.26,25.72,0,0-6.85,0-6.85,0Z"/>
  <path class="st0" d="M107.83,39.47c-1.7-.07-3.33-.13-4.83-.13-9.53,0-16.26,1.7-24.55,4.64l-.26-14.04c9.6-2.09,15.02-3.07,24.74-3.07,12.34,0,19.59,3.33,19.59,16.26l-.07,21.94h-3.33l.07-2.22c-2.68,1.04-8.09,2.81-15.54,2.81-17.24,0-26.9-3.46-26.9-12.54s12.21-10.05,27.62-10.05c5.42,0,11.16.72,14.89,1.57-.46-2.42-3.2-4.7-11.43-5.16h0ZM116.71,46.85c-3.13-.52-8.23-.85-13.58-.85-10.51,0-22,1.18-22,3.92,0,2.15,8.09,3,17.3,3,7.51,0,15.73-.59,20.83-1.44l.07-4.18c-.85-.13-1.89-.33-2.61-.46h0Z"/>
  <path class="st0" d="M176.65,45.81c0-6.46-.85-15.47-4.77-15.47s-4.83,9.4-4.83,15.47l.13,19.26h-14.82s.26-11.75.26-19.26c0-6.46-.85-15.47-4.77-15.47s-4.37,9.4-4.37,15.47c0,7.51.26,19.26.26,19.26h-16.06c.26-5.74.33-11.43.33-17.11,0-6.53-.13-12.99-.33-19.52,2.28-.2,11.3-.52,13.45-.91,0,.46-.2,1.96-.39,2.94,2.09-1.96,5.94-3.39,8.81-3.39,4.64,0,9.73,1.18,12.34,4.05,2.22-3,9.01-4.18,12.67-4.18,10.12,0,18.28,4.64,18.28,19,0,5.61-.26,19.13-.26,19.13h-16.19s.26-11.75.26-19.26h0Z"/>
  <path class="st0" d="M243.43,40.19c-1.7-.33-13.06-1.7-22.52-1.76h-4.18c-5.68,0-12.66.2-12.66,1.7,0,5.88,40.54.39,40.54,12.01,0,8.81-5.68,13.58-22.78,13.58-8.75,0-24.29-1.57-24.29-1.57l2.55-12.8c8.16.78,17.43,1.11,21.35,1.11,10.77,0,16.97,0,16.97-1.5,0-2.22-13.78-3.07-16.78-3.39-5.16-.59-23.37-.59-23.37-8.95,0-8.88,11.88-11.55,22.39-11.55h.39c14.36,0,21.61.91,23.7,1.31l-1.31,11.82h0Z"/>
</svg>