<?xml version="1.0" encoding="UTF-8"?>
<svg id="Layer_2" data-name="Layer 2" xmlns="http://www.w3.org/2000/svg" version="1.1" viewBox="0 0 1004 184.5">
  <defs>
    <style>
      .cls-1 {
        fill: #b45927;
        stroke-width: 0px;
      }
    </style>
  </defs>
  <path class="cls-1" d="M29.1,148c.6-.2,1.4,0,1.7.7,1.3,2.5,5,8.9,12.1,12,3.6,1.5,9.6,2.1,15.4,1.5,5.1-.7,10.1-3.4,11.9-10.6,1.3-5.3-1.6-11.3-6.3-13.7-5.7-3-19-4.5-31.1-6.9-10.2-2.1-16.9-8.3-20.5-13.6-3.8-5.6-4.9-14-3.4-21.7,1.6-8,6.3-15.9,13.3-20.9,6.9-5,18.6-9,29.7-8.9,20.6.2,30.5,4.5,38.8,13.9,3.1,3.5,5.8,8.6,6.1,12.8,0,.7-.4,1.3-1,1.4l-20.8,5.1c-.7.2-1.3-.2-1.6-.8-2-5.4-5.9-10-14.8-11.4-10.1-1.7-19.9,1.5-22.5,9.2-1.2,3.4-.1,7.1,4,9.4,8.6,4.8,22.3,5.2,33.6,8.3,13.1,4.2,28.9,14.4,26.4,36-1.6,13.9-10.8,31.7-38.1,34.7-12.2,1-24.8-.2-34-3.3-6.2-2.1-12.2-6-17-13.2-1.9-2.7-4-7-5.1-9.5-.3-.7,0-1.5.8-1.8l22.5-8.4h0Z"/>
  <path class="cls-1" d="M345.6,148c.6-.2,1.4,0,1.7.7,1.3,2.5,5,8.9,12.1,12,3.6,1.5,9.6,2.1,15.4,1.5,5.1-.7,10.1-3.4,11.9-10.6,1.3-5.3-1.6-11.3-6.3-13.7-5.7-3-19-4.5-31.1-6.9-10.2-2.1-16.9-8.3-20.5-13.6-3.8-5.6-4.9-14-3.4-21.7,1.6-8,6.3-15.9,13.3-20.9,6.9-5,18.6-9,29.7-8.9,20.6.2,30.5,4.5,38.8,13.9,3.1,3.5,5.8,8.6,6.1,12.8,0,.7-.4,1.3-1,1.4l-20.8,5.1c-.7.2-1.3-.2-1.6-.8-2-5.4-5.9-10-14.8-11.4-10.1-1.7-19.9,1.5-22.5,9.2-1.2,3.4-.1,7.1,4,9.4,8.6,4.8,22.3,5.2,33.6,8.3,13.1,4.2,28.9,14.4,26.4,36-1.6,13.9-10.8,31.7-38.1,34.7-12.2,1-24.8-.2-34-3.3-6.2-2.1-12.2-6-17-13.2-1.9-2.7-4-7-5.1-9.5-.3-.7,0-1.5.8-1.8l22.5-8.4h0Z"/>
  <rect class="cls-1" x="117.5" y="73.7" width="29.3" height="105.5" rx="1.3" ry="1.3"/>
  <path class="cls-1" d="M196,179.2h-13.3c-8.1,0-14.6-6.5-14.6-14.6v-98.2c0-.7.5-1.3,1.2-1.3l26.3-2.7c.8,0,1.5.5,1.5,1.3l.3,114.2c0,.7-.6,1.3-1.3,1.3h0Z"/>
  <path class="cls-1" d="M797.7,179.2h-13.3c-8.1,0-14.6-6.5-14.6-14.6v-98.2c0-.7.5-1.3,1.2-1.3l26.3-2.7c.8,0,1.5.5,1.5,1.3l.3,114.2c0,.7-.6,1.3-1.3,1.3h0Z"/>
  <path class="cls-1" d="M307,136.7c.3-15.6.9-30.3-1-41.2-1.4-8.2-6.1-14.4-11.7-19.5-6.3-5.7-15.8-8.9-27.7-10.1-11.2-1.1-22.5.7-31.9,7.7-6.2,4.6-11.1,10.9-13.2,17.9-.2.7.2,1.4.9,1.6l18.9,6.5c.6.2,1.2,0,1.5-.5,3.3-4.9,7.1-8.9,12.3-10,8.4-1.9,18.6-.1,22.2,7.5,2.2,4.6,2.2,10.2,2.2,15.5,0,.7-.6,1.3-1.3,1.3-3.5,0-13,0-17.3.4-20,1.3-34.5,7.2-40.7,14.9-7.6,9.5-9.9,21.2-5.6,33.5,4,11.6,15.8,19,28.6,19.5,16.6,0,28.3-7.1,36.4-14.5.4,0,.7,0,1,.5,1.5,2.8,2.4,6.5,3.1,10.5.1.6.7,1.1,1.3,1.1h20.8c.7,0,1.3-.6,1.3-1.3,0-7-.3-9.5-.3-15.9,0-9.3.2-16,.3-25.3h0ZM278.4,146.6c0,.4-.2.8-.5,1-7.2,5.3-18.7,9.9-30.2,8.5-2.9-.4-8-2.3-8.3-8.5-.3-7,3.6-13.6,13.8-15.7,8.8-1.6,16-1.8,24.2-1.5.7,0,1.3.6,1.3,1.4l-.3,14.8h0Z"/>
  <path class="cls-1" d="M753.2,123.1c0,32-20.7,58-53.4,58s-53.4-26-53.4-58,19.3-58,53.4-58,53.4,26,53.4,58Z"/>
  <ellipse class="cls-1" cx="132.1" cy="26.8" rx="23.2" ry="25.2" transform="translate(97.2 157) rotate(-86.4)"/>
  <path class="cls-1" d="M872.1,86.8l-.8,16.2c0,.6-.5,1.2-1.2,1.3-4.2.6-6.6.5-10.5.8-3.2.3-6.5,1.1-9,2.2-.5.2-.7.7-.8,1.2l-.8,69.4c0,.7-.6,1.3-1.3,1.3h-25.3c-.8,0-1.3-.6-1.3-1.3.2-15.1.5-38.4.6-52.8,0-16.7.2-39.1.1-41.9,0-2.8.2-13.1.2-17.4-.2-16.4,6.3-31.6,17.7-36.4,10.3-4.8,26.6-4.9,34.8.4,6.4,4.2,11.3,9.4,13.9,16.1.2.5,0,1.1-.6,1.4l-23.6,11.6c-.6.3-1.2,0-1.5-.5-1.4-2.9-3.3-4.2-6.8-4.1-2.8,0-5.4,1.6-5.6,5l-.4,25.3c0,.8.7,1.4,1.4,1.3,6.9-.4,13.3-.5,19.5-.4.8,0,1.3.7,1.3,1.4h0Z"/>
  <path class="cls-1" d="M997.4,139.2l-21.1-7.2c-.6-.2-1.4,0-1.6.7-3.9,8.3-7.4,13-12.3,17.5-6.3,5.8-14.2,7.7-21.4,7-11.3-1.6-18.5-7.2-22.5-16-.3-.6,0-1.4.6-1.7,9.1-4.9,25.9-12.7,34-16.6,15.7-7.5,27.1-13.3,38-18.9.6-.3.9-1,.7-1.6-2.7-7.8-6.6-14.9-11.9-21-13.9-15.3-37.1-21.2-59.1-13-21.8,8.7-30.7,25-33.2,44.4-1.7,20.4,2.3,36.9,14.8,51.8,10.1,10.8,23,16.5,38.8,16.5,13.3,0,25-1.7,36.4-10.9,8.8-7.1,15.3-15.7,19.7-25.6.6-1.3,1.1-2.8,1.2-3.9,0-.6-.3-1.2-.9-1.4h0ZM914,117.4c-.2-4.9-.1-10.6,2.9-15.9,3.1-5.2,9.4-11,18.8-13.1,11.8-2.7,21.9,3.5,26.6,11.6.4.7.1,1.6-.6,1.9l-45.2,21.4c-.8.4-1.7,0-1.9-1-.3-1.5-.5-3.2-.6-4.8h0Z"/>
  <path class="cls-1" d="M628.5,67.3v110.4c0,.9-.7,1.6-1.6,1.6h-20.1c-.8,0-1.5-.6-1.6-1.5l-.5-7.2c-.1-1.7-2.3-2.4-3.4-1.1-5,6-13.9,11.6-23.8,11.6-14.4,0-24.5-4.4-31.8-15.7-.6-.9-1.9-1-2.6,0-5.4,7.3-14.7,15.7-27.9,15.7-31.5,0-40.1-20.6-40.1-43s.8-63,1-70.9c0-.8.7-1.5,1.6-1.5h23c.9,0,1.6.7,1.6,1.6-.2,8.6-1,50.2-1,67.2s7.2,23,17.2,23,19.7-7.4,19.7-19.3c0-20.6.8-62.5,1-71,0-.8.7-1.5,1.6-1.5h23.1c.9,0,1.6.7,1.6,1.6v67.2c0,18.1,7.2,23,17.2,23s19.7-6,19.7-19.3v-70.9c0-.9.7-1.6,1.6-1.6h23c.9,0,1.6.7,1.6,1.6h0Z"/>
</svg>